<svg width="26" height="24" viewBox="0 0 26 24" fill="none" xmlns="http://www.w3.org/2000/svg">
<path d="M25.0665 15.104C24.5435 15.104 24.117 15.528 24.117 16.048V19.264C24.117 20.84 22.8295 22.12 21.2442 22.12H4.7719C3.18663 22.12 1.8991 20.84 1.8991 19.264V16.048C1.8991 15.528 1.47261 15.104 0.949551 15.104C0.426493 15.104 0 15.528 0 16.048V19.264C0 21.88 2.13247 24 4.76385 24H21.2362C23.8675 24 26 21.88 26 19.264V16.048C26 15.528 25.5735 15.104 25.0505 15.104H25.0665Z" fill="#999999"/>
<path d="M12.3361 17.856C12.7063 18.224 13.3018 18.224 13.6719 17.856L19.0554 12.504C19.3934 12.104 19.3371 11.512 18.9347 11.176C18.5887 10.888 18.0817 10.888 17.7357 11.176L13.9455 14.944V0.944C13.9455 0.424 13.519 0 12.996 0C12.4729 0 12.0464 0.424 12.0464 0.944V14.92L8.25627 11.152C7.88611 10.784 7.28258 10.784 6.92046 11.152C6.5503 11.52 6.5503 12.12 6.92046 12.48L12.32 17.848L12.3361 17.856Z" fill="#999999"/>
</svg>
